<?xml version="1.0" encoding="utf-8"?>
<!-- Generator: Adobe Illustrator 25.2.1, SVG Export Plug-In . SVG Version: 6.00 Build 0)  -->
<svg version="1.1" id="Capa_1" xmlns="http://www.w3.org/2000/svg" xmlns:xlink="http://www.w3.org/1999/xlink" x="0px" y="0px"
	 viewBox="0 0 792 160" style="enable-background:new 0 0 792 160;" xml:space="preserve">
<style type="text/css">
	.st0{fill:#AFCA0B;}
</style>
<g>
	<path class="st0" d="M171.4,119.1c0,2.8-1.1,4.5-3.4,5.2c-0.9,0.3-3.2,0.4-6.8,0.4c-3.7,0-5.6-1.9-5.6-5.6V63L109,120.5
		c-2.5,3-5.8,4.6-10,4.6c-4.3,0-7.6-1.5-10.1-4.6L41.3,62.7v56.4c0,3.8-1.9,5.6-5.6,5.6c-3.7,0-5.9-0.1-6.8-0.4
		c-2.3-0.7-3.4-2.4-3.4-5.2V46.3c0-5.4,2.9-8,8.8-8c3.8,0,6.9,1.4,9.3,4.1l55.5,65.7l54.3-65.8c2.3-2.7,5.3-4.1,9-4.1
		c6,0,9,2.9,9,8.8V119.1z"/>
	<path class="st0" d="M272.1,103.5c0,7.8-3.8,13.5-11.5,17.1c-5.5,2.8-12.7,4.1-21.8,4.1h-25c-8.2,0-15.7-1.4-22.4-4.2
		c-8.3-3.7-12.4-9.4-12.4-17V78.4c0-7.6,4.1-13.4,12.3-17.4c6-3,13.5-4.6,22.4-4.6h25.1c22.2,0,33.3,7.3,33.3,21.8V103.5z
		 M256.9,103.5V77.2c0-5.4-6.2-8.1-18.5-8.1H214c-4.5,0-8.6,0.6-12.2,1.7c-5.1,1.7-7.7,4.2-7.7,7.6v25.1c0,3.2,2.6,5.6,7.8,7.1
		c3.5,1,7.5,1.5,12.2,1.5h24.4c3.9,0,7.7-0.6,11.2-1.7C254.5,108.9,256.9,106.6,256.9,103.5"/>
	<path class="st0" d="M383.3,61.1c0,1.3-0.7,2.8-2.1,4.5l-47.8,57.8c-1.7,1.9-3.6,2.9-5.7,2.9c-2.1,0-4-0.9-5.5-2.8l-48.1-58
		c-1.4-1.7-2.1-3.2-2.1-4.5c0-3.3,2.7-4.9,8.2-4.9c3.3,0,5.6,0.8,6.8,2.3l40.8,49.7l40.6-49.7c1.3-1.6,3.6-2.3,6.8-2.3
		C380.6,56.2,383.3,57.8,383.3,61.1"/>
	<path class="st0" d="M406.2,47.1c0,2.5-1,4.4-3.1,5.8c-1.8,1.2-4,1.8-6.6,1.8c-2.6,0-4.8-0.6-6.6-1.8c-2.1-1.4-3.1-3.4-3.1-5.8
		c0-2.5,1-4.4,3.1-5.8c1.8-1.2,4-1.9,6.6-1.9c2.6,0,4.8,0.6,6.6,1.9C405.1,42.7,406.2,44.7,406.2,47.1 M404.1,119.1
		c0,3.8-1.9,5.6-5.6,5.6c-3.7,0-5.8-0.2-6.4-0.5c-2-0.7-2.9-2.4-2.9-5.1V61.8c0-3.7,1.9-5.6,5.6-5.6c3.6,0,5.7,0.2,6.3,0.5
		c2,0.7,3,2.4,3,5V119.1z"/>
	<path class="st0" d="M428.4,119.1c0,3.8-1.9,5.6-5.6,5.6c-3.7,0-5.8-0.2-6.4-0.5c-2-0.8-3.1-2.5-3.1-5.1V43.6
		c0-3.7,1.9-5.6,5.6-5.6c3.5,0,5.6,0.1,6.5,0.4c2,0.7,3,2.4,3,5.1V119.1z"/>
	<path class="st0" d="M544.2,101.7c0,8.3-3.9,14.5-11.8,18.4c-6.1,3.1-13.7,4.6-22.9,4.6h-67.1c-3.7,0-5.6-1.9-5.6-5.6V43.6
		c0-3.7,1.9-5.6,5.6-5.6h66.1c5.9,0,11.4,0.5,16.2,1.4c5.3,1.3,9.7,3.6,13.4,7c4,3.8,6.1,8.3,6.1,13.4c0,4.9-0.2,8.5-0.6,10.7
		c-0.1,0.4-0.4,1.1-0.9,2.1c-0.5,1-1.2,2.3-2.1,3.8c-1.8,3-2.6,4.7-2.6,5.1c0,0.2,0.9,1.7,2.6,4.5c0.9,1.4,1.6,2.5,2.1,3.5
		c0.5,0.9,0.8,1.7,0.9,2.2c0.2,0.8,0.3,2,0.4,3.6C544.2,96.9,544.2,99.1,544.2,101.7 M528.4,97.3c0-6-6.5-9-19.6-9h-56.2v23.4h55.1
		c12.8,0,19.6-2.7,20.5-8.2c0.1-0.3,0.1-1,0.1-2C528.4,100.5,528.4,99.1,528.4,97.3 M528.9,67.2c0-1.6-0.1-4-0.4-7.3
		c-0.5-6-7.3-9-20.5-9H453v24.3h55.5C522.1,75.3,528.9,72.6,528.9,67.2"/>
	<path class="st0" d="M645.1,103.5c0,7.8-3.8,13.5-11.5,17.1c-5.5,2.8-12.7,4.1-21.8,4.1h-25c-8.2,0-15.7-1.4-22.4-4.2
		c-8.3-3.7-12.4-9.4-12.4-17V78.4c0-7.6,4.1-13.4,12.3-17.4c6-3,13.5-4.6,22.4-4.6h25.1c22.2,0,33.3,7.3,33.3,21.8V103.5z
		 M629.9,103.5V77.2c0-5.4-6.2-8.1-18.5-8.1H587c-4.6,0-8.6,0.6-12.2,1.7c-5.1,1.7-7.7,4.2-7.7,7.6v25.1c0,3.2,2.6,5.6,7.8,7.1
		c3.5,1,7.5,1.5,12.2,1.5h24.4c3.9,0,7.7-0.6,11.2-1.7C627.5,108.9,629.9,106.6,629.9,103.5"/>
	<path class="st0" d="M743,119.8c0,2.6-1.3,4.1-3.9,4.7c-0.4,0.2-2.7,0.3-7,0.3c-1.1,0-2.2-0.4-3.3-1.1l-33.6-24.5l-33.9,24.5
		c-1,0.8-3.7,1.1-8,1.1c-4.3,0-6.4-1.7-6.4-5c0-1.9,1.1-3.7,3.2-5.2l33.5-23.9l-33.1-24c-2-1.5-3.1-3.2-3.1-5.2
		c0-2.6,1.4-4.2,4.1-4.8c0.6-0.1,3-0.2,7.1-0.2c1.2,0,2.3,0.4,3.3,1.1L695.3,82l32.7-24.4c0.9-0.8,3.5-1.1,7.8-1.1
		c4.3,0,6.4,1.6,6.4,4.9c0,2-1,3.7-3.1,5.2l-32.3,23.9l33,24.1C741.9,116.1,743,117.8,743,119.8"/>
	<path class="st0" d="M766.5,46c0,3.4-1.1,6.3-3.4,8.7c-2.3,2.4-5.1,3.5-8.3,3.5c-3.2,0-5.9-1.2-8.2-3.5c-2.3-2.4-3.4-5.3-3.4-8.7
		c0-3.4,1.1-6.2,3.4-8.6c2.3-2.4,5-3.6,8.2-3.6c3.2,0,6,1.2,8.3,3.6C765.3,39.7,766.5,42.6,766.5,46 M764.5,46c0-2.8-1-5.2-2.9-7.2
		c-1.9-2-4.2-3-6.9-3c-2.7,0-5,1-6.9,3c-1.9,2-2.8,4.4-2.8,7.2c0,2.9,0.9,5.3,2.8,7.3c1.9,2,4.2,3,6.9,3c2.7,0,5-1,6.9-3
		C763.6,51.2,764.5,48.8,764.5,46 M760.3,44c0,2-1.4,2.9-4.1,3h-2l5.7,3.9c0.3,0.1,0.4,0.3,0.4,0.7c0,0.2-0.1,0.5-0.3,0.7
		c-0.2,0.2-0.4,0.3-0.7,0.3c0,0-0.2,0-0.5-0.1l-8.1-5.5v4.5c0,0.7-0.3,1-1,1c-0.6,0-1-0.3-1-1V39.8c0-0.4,0.2-0.6,0.5-0.6h6.5
		c3,0,4.4,1,4.4,3.1V44z M758.4,42.3c0-0.8-0.8-1.3-2.3-1.3h-5.3v4.1h5.6c1.3,0,2-0.4,2-1.2V42.3z"/>
</g>
</svg>
